<svg version="1.1" xmlns="http://www.w3.org/2000/svg" xmlns:xlink="http://www.w3.org/1999/xlink" width="819" height="303"><defs/><g><text fill="#eeeeee" stroke="none" font-family="Arial" font-size="24px" font-style="normal" font-weight="normal" text-decoration="none" x="0" y="0">UNREGISTERED</text><text fill="#eeeeee" stroke="none" font-family="Arial" font-size="24px" font-style="normal" font-weight="normal" text-decoration="none" x="0" y="30">UNREGISTERED</text><text fill="#eeeeee" stroke="none" font-family="Arial" font-size="24px" font-style="normal" font-weight="normal" text-decoration="none" x="0" y="60">UNREGISTERED</text><text fill="#eeeeee" stroke="none" font-family="Arial" font-size="24px" font-style="normal" font-weight="normal" text-decoration="none" x="0" y="90">UNREGISTERED</text><text fill="#eeeeee" stroke="none" font-family="Arial" font-size="24px" font-style="normal" font-weight="normal" text-decoration="none" x="0" y="120">UNREGISTERED</text><text fill="#eeeeee" stroke="none" font-family="Arial" font-size="24px" font-style="normal" font-weight="normal" text-decoration="none" x="0" y="150">UNREGISTERED</text><text fill="#eeeeee" stroke="none" font-family="Arial" font-size="24px" font-style="normal" font-weight="normal" text-decoration="none" x="0" y="180">UNREGISTERED</text><text fill="#eeeeee" stroke="none" font-family="Arial" font-size="24px" font-style="normal" font-weight="normal" text-decoration="none" x="0" y="210">UNREGISTERED</text><text fill="#eeeeee" stroke="none" font-family="Arial" font-size="24px" font-style="normal" font-weight="normal" text-decoration="none" x="0" y="240">UNREGISTERED</text><text fill="#eeeeee" stroke="none" font-family="Arial" font-size="24px" font-style="normal" font-weight="normal" text-decoration="none" x="0" y="270">UNREGISTERED</text><text fill="#eeeeee" stroke="none" font-family="Arial" font-size="24px" font-style="normal" font-weight="normal" text-decoration="none" x="0" y="300">UNREGISTERED</text><text fill="#eeeeee" stroke="none" font-family="Arial" font-size="24px" font-style="normal" font-weight="normal" text-decoration="none" x="200" y="0">UNREGISTERED</text><text fill="#eeeeee" stroke="none" font-family="Arial" font-size="24px" font-style="normal" font-weight="normal" text-decoration="none" x="200" y="30">UNREGISTERED</text><text fill="#eeeeee" stroke="none" font-family="Arial" font-size="24px" font-style="normal" font-weight="normal" text-decoration="none" x="200" y="60">UNREGISTERED</text><text fill="#eeeeee" stroke="none" font-family="Arial" font-size="24px" font-style="normal" font-weight="normal" text-decoration="none" x="200" y="90">UNREGISTERED</text><text fill="#eeeeee" stroke="none" font-family="Arial" font-size="24px" font-style="normal" font-weight="normal" text-decoration="none" x="200" y="120">UNREGISTERED</text><text fill="#eeeeee" stroke="none" font-family="Arial" font-size="24px" font-style="normal" font-weight="normal" text-decoration="none" x="200" y="150">UNREGISTERED</text><text fill="#eeeeee" stroke="none" font-family="Arial" font-size="24px" font-style="normal" font-weight="normal" text-decoration="none" x="200" y="180">UNREGISTERED</text><text fill="#eeeeee" stroke="none" font-family="Arial" font-size="24px" font-style="normal" font-weight="normal" text-decoration="none" x="200" y="210">UNREGISTERED</text><text fill="#eeeeee" stroke="none" font-family="Arial" font-size="24px" font-style="normal" font-weight="normal" text-decoration="none" x="200" y="240">UNREGISTERED</text><text fill="#eeeeee" stroke="none" font-family="Arial" font-size="24px" font-style="normal" font-weight="normal" text-decoration="none" x="200" y="270">UNREGISTERED</text><text fill="#eeeeee" stroke="none" font-family="Arial" font-size="24px" font-style="normal" font-weight="normal" text-decoration="none" x="200" y="300">UNREGISTERED</text><text fill="#eeeeee" stroke="none" font-family="Arial" font-size="24px" font-style="normal" font-weight="normal" text-decoration="none" x="400" y="0">UNREGISTERED</text><text fill="#eeeeee" stroke="none" font-family="Arial" font-size="24px" font-style="normal" font-weight="normal" text-decoration="none" x="400" y="30">UNREGISTERED</text><text fill="#eeeeee" stroke="none" font-family="Arial" font-size="24px" font-style="normal" font-weight="normal" text-decoration="none" x="400" y="60">UNREGISTERED</text><text fill="#eeeeee" stroke="none" font-family="Arial" font-size="24px" font-style="normal" font-weight="normal" text-decoration="none" x="400" y="90">UNREGISTERED</text><text fill="#eeeeee" stroke="none" font-family="Arial" font-size="24px" font-style="normal" font-weight="normal" text-decoration="none" x="400" y="120">UNREGISTERED</text><text fill="#eeeeee" stroke="none" font-family="Arial" font-size="24px" font-style="normal" font-weight="normal" text-decoration="none" x="400" y="150">UNREGISTERED</text><text fill="#eeeeee" stroke="none" font-family="Arial" font-size="24px" font-style="normal" font-weight="normal" text-decoration="none" x="400" y="180">UNREGISTERED</text><text fill="#eeeeee" stroke="none" font-family="Arial" font-size="24px" font-style="normal" font-weight="normal" text-decoration="none" x="400" y="210">UNREGISTERED</text><text fill="#eeeeee" stroke="none" font-family="Arial" font-size="24px" font-style="normal" font-weight="normal" text-decoration="none" x="400" y="240">UNREGISTERED</text><text fill="#eeeeee" stroke="none" font-family="Arial" font-size="24px" font-style="normal" font-weight="normal" text-decoration="none" x="400" y="270">UNREGISTERED</text><text fill="#eeeeee" stroke="none" font-family="Arial" font-size="24px" font-style="normal" font-weight="normal" text-decoration="none" x="400" y="300">UNREGISTERED</text><text fill="#eeeeee" stroke="none" font-family="Arial" font-size="24px" font-style="normal" font-weight="normal" text-decoration="none" x="600" y="0">UNREGISTERED</text><text fill="#eeeeee" stroke="none" font-family="Arial" font-size="24px" font-style="normal" font-weight="normal" text-decoration="none" x="600" y="30">UNREGISTERED</text><text fill="#eeeeee" stroke="none" font-family="Arial" font-size="24px" font-style="normal" font-weight="normal" text-decoration="none" x="600" y="60">UNREGISTERED</text><text fill="#eeeeee" stroke="none" font-family="Arial" font-size="24px" font-style="normal" font-weight="normal" text-decoration="none" x="600" y="90">UNREGISTERED</text><text fill="#eeeeee" stroke="none" font-family="Arial" font-size="24px" font-style="normal" font-weight="normal" text-decoration="none" x="600" y="120">UNREGISTERED</text><text fill="#eeeeee" stroke="none" font-family="Arial" font-size="24px" font-style="normal" font-weight="normal" text-decoration="none" x="600" y="150">UNREGISTERED</text><text fill="#eeeeee" stroke="none" font-family="Arial" font-size="24px" font-style="normal" font-weight="normal" text-decoration="none" x="600" y="180">UNREGISTERED</text><text fill="#eeeeee" stroke="none" font-family="Arial" font-size="24px" font-style="normal" font-weight="normal" text-decoration="none" x="600" y="210">UNREGISTERED</text><text fill="#eeeeee" stroke="none" font-family="Arial" font-size="24px" font-style="normal" font-weight="normal" text-decoration="none" x="600" y="240">UNREGISTERED</text><text fill="#eeeeee" stroke="none" font-family="Arial" font-size="24px" font-style="normal" font-weight="normal" text-decoration="none" x="600" y="270">UNREGISTERED</text><text fill="#eeeeee" stroke="none" font-family="Arial" font-size="24px" font-style="normal" font-weight="normal" text-decoration="none" x="600" y="300">UNREGISTERED</text><text fill="#eeeeee" stroke="none" font-family="Arial" font-size="24px" font-style="normal" font-weight="normal" text-decoration="none" x="800" y="0">UNREGISTERED</text><text fill="#eeeeee" stroke="none" font-family="Arial" font-size="24px" font-style="normal" font-weight="normal" text-decoration="none" x="800" y="30">UNREGISTERED</text><text fill="#eeeeee" stroke="none" font-family="Arial" font-size="24px" font-style="normal" font-weight="normal" text-decoration="none" x="800" y="60">UNREGISTERED</text><text fill="#eeeeee" stroke="none" font-family="Arial" font-size="24px" font-style="normal" font-weight="normal" text-decoration="none" x="800" y="90">UNREGISTERED</text><text fill="#eeeeee" stroke="none" font-family="Arial" font-size="24px" font-style="normal" font-weight="normal" text-decoration="none" x="800" y="120">UNREGISTERED</text><text fill="#eeeeee" stroke="none" font-family="Arial" font-size="24px" font-style="normal" font-weight="normal" text-decoration="none" x="800" y="150">UNREGISTERED</text><text fill="#eeeeee" stroke="none" font-family="Arial" font-size="24px" font-style="normal" font-weight="normal" text-decoration="none" x="800" y="180">UNREGISTERED</text><text fill="#eeeeee" stroke="none" font-family="Arial" font-size="24px" font-style="normal" font-weight="normal" text-decoration="none" x="800" y="210">UNREGISTERED</text><text fill="#eeeeee" stroke="none" font-family="Arial" font-size="24px" font-style="normal" font-weight="normal" text-decoration="none" x="800" y="240">UNREGISTERED</text><text fill="#eeeeee" stroke="none" font-family="Arial" font-size="24px" font-style="normal" font-weight="normal" text-decoration="none" x="800" y="270">UNREGISTERED</text><text fill="#eeeeee" stroke="none" font-family="Arial" font-size="24px" font-style="normal" font-weight="normal" text-decoration="none" x="800" y="300">UNREGISTERED</text><g transform="translate(-150,-814) scale(1,1)"><rect fill="#C0C0C0" stroke="none" x="167" y="951" width="120" height="39" opacity="0.2"/></g><g transform="translate(-150,-814) scale(1,1)"><rect fill="#ffffff" stroke="none" x="160" y="944" width="120" height="39"/></g><g transform="translate(-150,-814) scale(1,1)"><path fill="none" stroke="#000000" d="M 160 944 L 280 944 L 280 983 L 160 983 L 160 944 Z Z" stroke-miterlimit="10"/></g><g transform="translate(-150,-814) scale(1,1)"><g><path fill="none" stroke="none"/><text fill="#000000" stroke="none" font-family="Arial" font-size="13px" font-style="normal" font-weight="normal" text-decoration="none" x="220" y="961.5"></text></g></g><g transform="translate(-150,-814) scale(1,1)"><g><path fill="none" stroke="none"/><text fill="#000000" stroke="none" font-family="Arial" font-size="13px" font-style="normal" font-weight="normal" text-decoration="none" x="220" y="961.5"></text></g></g><g transform="translate(-150,-814) scale(1,1)"><g><path fill="none" stroke="none"/><text fill="#000000" stroke="none" font-family="Arial" font-size="13px" font-style="normal" font-weight="normal" text-decoration="none" x="220" y="961.5"></text></g></g><g transform="translate(-150,-814) scale(1,1)"><g><path fill="none" stroke="none"/><text fill="#000000" stroke="none" font-family="Arial" font-size="13px" font-style="normal" font-weight="normal" text-decoration="none" x="-0.5" y="12.5"></text></g></g><g transform="translate(-150,-814) scale(1,1)"><g><path fill="none" stroke="none"/><text fill="#000000" stroke="none" font-family="Arial" font-size="13px" font-style="normal" font-weight="normal" text-decoration="none" x="220" y="961.5"></text></g></g><g transform="translate(-150,-814) scale(1,1)"><g><path fill="none" stroke="none"/><text fill="#000000" stroke="none" font-family="Arial" font-size="13px" font-style="normal" font-weight="normal" text-decoration="none" x="197.602294921875" y="966.5">Usuario</text></g></g><g transform="translate(-150,-814) scale(1,1)"><g><path fill="none" stroke="none"/><text fill="#000000" stroke="none" font-family="Arial" font-size="13px" font-style="normal" font-weight="normal" text-decoration="none" x="-56.5" y="-51.5"></text></g></g><g transform="translate(-150,-814) scale(1,1)"><path fill="#C0C0C0" stroke="none" d="M 553 1047 L 685 1047 Q 695 1047 695 1057 L 695 1101 Q 695 1111 685 1111 L 553 1111 Q 543 1111 543 1101 L 543 1057 Q 543 1047 553 1047 Z" opacity="0.2"/></g><g transform="translate(-150,-814) scale(1,1)"><path fill="#ffffff" stroke="none" d="M 546 1040 L 678 1040 Q 688 1040 688 1050 L 688 1094 Q 688 1104 678 1104 L 546 1104 Q 536 1104 536 1094 L 536 1050 Q 536 1040 546 1040 Z"/></g><g transform="translate(-150,-814) scale(1,1)"><path fill="none" stroke="#000000" d="M 546 1040 L 678 1040 Q 688 1040 688 1050 L 688 1094 Q 688 1104 678 1104 L 546 1104 Q 536 1104 536 1094 L 536 1050 Q 536 1040 546 1040 Z" stroke-miterlimit="10"/></g><g transform="translate(-150,-814) scale(1,1)"><path fill="none" stroke="#000000" d="M 536 1063 L 688 1063" stroke-miterlimit="10"/></g><g transform="translate(-150,-814) scale(1,1)"><g><path fill="none" stroke="none"/><text fill="#000000" stroke="none" font-family="Arial" font-size="13px" font-style="normal" font-weight="normal" text-decoration="none" x="557.451416015625" y="1084.5">Recetas Divertidas</text></g></g><g transform="translate(-150,-814) scale(1,1)"><g><path fill="none" stroke="none"/><text fill="#000000" stroke="none" font-family="Arial" font-size="13px" font-style="normal" font-weight="normal" text-decoration="none" x="612" y="1057.5"></text></g></g><g transform="translate(-150,-814) scale(1,1)"><path fill="none" stroke="#000000" d="M 208 983 L 208 1064 M 208 1064 A 8 8 0 0 0 216 1072 L 536 1072" stroke-miterlimit="10"/></g><g transform="translate(-150,-814) scale(1,1)"><path fill="#000000" stroke="none" d="M 525.8373251423759 1076.2095177560159 L 536 1072 L 525.8373251423758 1067.7904822439841"/></g><g transform="translate(-150,-814) scale(1,1)"><path fill="none" stroke="#000000" d="M 525.8373251423759 1076.2095177560159 L 536 1072 L 525.8373251423758 1067.7904822439841 L 525.8373251423759 1076.2095177560159" stroke-miterlimit="10"/></g><g transform="translate(-150,-814) scale(1,1)"><g><path fill="none" stroke="none"/><text fill="#000000" stroke="none" font-family="Arial" font-size="13px" font-style="normal" font-weight="normal" text-decoration="none" x="214.5" y="1063.5">Registra</text></g></g><g transform="translate(-150,-814) scale(1,1)"><path fill="none" stroke="#000000" d="M 240 944 L 240 920 M 240 920 A 8 8 0 0 1 248 912 L 592 912 M 592 912 A 8 8 0 0 1 600 920 L 600 1040" stroke-miterlimit="10"/></g><g transform="translate(-150,-814) scale(1,1)"><path fill="#000000" stroke="none" d="M 595.790482243984 1029.837325142376 L 600 1040 L 604.209517756016 1029.837325142376"/></g><g transform="translate(-150,-814) scale(1,1)"><path fill="none" stroke="#000000" d="M 595.790482243984 1029.837325142376 L 600 1040 L 604.209517756016 1029.837325142376 L 595.790482243984 1029.837325142376" stroke-miterlimit="10"/></g><g transform="translate(-150,-814) scale(1,1)"><g><path fill="none" stroke="none"/><text fill="#000000" stroke="none" font-family="Arial" font-size="13px" font-style="normal" font-weight="normal" text-decoration="none" x="378.5" y="903.5">Busca recetas</text></g></g><g transform="translate(-150,-814) scale(1,1)"><path fill="none" stroke="#000000" d="M 176 983 L 176 1080 M 176 1080 A 8 8 0 0 0 184 1088 L 536 1088" stroke-miterlimit="10"/></g><g transform="translate(-150,-814) scale(1,1)"><path fill="#000000" stroke="none" d="M 525.8373251423759 1092.2095177560159 L 536 1088 L 525.8373251423758 1083.7904822439841"/></g><g transform="translate(-150,-814) scale(1,1)"><path fill="none" stroke="#000000" d="M 525.8373251423759 1092.2095177560159 L 536 1088 L 525.8373251423758 1083.7904822439841 L 525.8373251423759 1092.2095177560159" stroke-miterlimit="10"/></g><g transform="translate(-150,-814) scale(1,1)"><g><path fill="none" stroke="none"/><text fill="#000000" stroke="none" font-family="Arial" font-size="13px" font-style="normal" font-weight="normal" text-decoration="none" x="191.5" y="1107.5">Loguea</text></g></g><g transform="translate(-150,-814) scale(1,1)"><path fill="none" stroke="#000000" d="M 576 1040 L 576 960 M 576 960 A 8 8 0 0 0 568 952 L 280 952" stroke-miterlimit="10"/></g><g transform="translate(-150,-814) scale(1,1)"><path fill="#000000" stroke="none" d="M 290.16267485762415 947.790482243984 L 280 952 L 290.16267485762415 956.209517756016"/></g><g transform="translate(-150,-814) scale(1,1)"><path fill="none" stroke="#000000" d="M 290.16267485762415 947.790482243984 L 280 952 L 290.16267485762415 956.209517756016 L 290.16267485762415 947.790482243984" stroke-miterlimit="10"/></g><g transform="translate(-150,-814) scale(1,1)"><g><path fill="none" stroke="none"/><text fill="#000000" stroke="none" font-family="Arial" font-size="13px" font-style="normal" font-weight="normal" text-decoration="none" x="287.5" y="947.5">Muestra recetas</text></g></g><g transform="translate(-150,-814) scale(1,1)"><path fill="none" stroke="#000000" d="M 280 976 L 544 976 M 544 976 A 8 8 0 0 1 552 984 L 552 1040" stroke-miterlimit="10"/></g><g transform="translate(-150,-814) scale(1,1)"><path fill="#000000" stroke="none" d="M 547.790482243984 1029.837325142376 L 552 1040 L 556.209517756016 1029.837325142376"/></g><g transform="translate(-150,-814) scale(1,1)"><path fill="none" stroke="#000000" d="M 547.790482243984 1029.837325142376 L 552 1040 L 556.209517756016 1029.837325142376 L 547.790482243984 1029.837325142376" stroke-miterlimit="10"/></g><g transform="translate(-150,-814) scale(1,1)"><g><path fill="none" stroke="none"/><text fill="#000000" stroke="none" font-family="Arial" font-size="13px" font-style="normal" font-weight="normal" text-decoration="none" x="478.5" y="971.5">Sube recetas</text></g></g><g transform="translate(-150,-814) scale(1,1)"><path fill="none" stroke="#000000" d="M 240 983 L 240 1040 M 240 1040 A 8 8 0 0 0 248 1048 L 536 1048" stroke-miterlimit="10"/></g><g transform="translate(-150,-814) scale(1,1)"><path fill="#000000" stroke="none" d="M 525.8373251423759 1052.2095177560159 L 536 1048 L 525.8373251423758 1043.7904822439841"/></g><g transform="translate(-150,-814) scale(1,1)"><path fill="none" stroke="#000000" d="M 525.8373251423759 1052.2095177560159 L 536 1048 L 525.8373251423758 1043.7904822439841 L 525.8373251423759 1052.2095177560159" stroke-miterlimit="10"/></g><g transform="translate(-150,-814) scale(1,1)"><g><path fill="none" stroke="none"/><text fill="#000000" stroke="none" font-family="Arial" font-size="13px" font-style="normal" font-weight="normal" text-decoration="none" x="246.5" y="1039.5">Califica recetas</text></g></g><g transform="translate(-150,-814) scale(1,1)"><rect fill="#C0C0C0" stroke="none" x="847" y="935" width="119" height="47" opacity="0.2"/></g><g transform="translate(-150,-814) scale(1,1)"><rect fill="#ffffff" stroke="none" x="840" y="928" width="119" height="47"/></g><g transform="translate(-150,-814) scale(1,1)"><path fill="none" stroke="#000000" d="M 840 928 L 959 928 L 959 975 L 840 975 L 840 928 Z Z" stroke-miterlimit="10"/></g><g transform="translate(-150,-814) scale(1,1)"><g><path fill="none" stroke="none"/><text fill="#000000" stroke="none" font-family="Arial" font-size="13px" font-style="normal" font-weight="normal" text-decoration="none" x="899.5" y="945.5"></text></g></g><g transform="translate(-150,-814) scale(1,1)"><g><path fill="none" stroke="none"/><text fill="#000000" stroke="none" font-family="Arial" font-size="13px" font-style="normal" font-weight="normal" text-decoration="none" x="899.5" y="945.5"></text></g></g><g transform="translate(-150,-814) scale(1,1)"><g><path fill="none" stroke="none"/><text fill="#000000" stroke="none" font-family="Arial" font-size="13px" font-style="normal" font-weight="normal" text-decoration="none" x="55.5" y="36.5"></text></g></g><g transform="translate(-150,-814) scale(1,1)"><g><path fill="none" stroke="none"/><text fill="#000000" stroke="none" font-family="Arial" font-size="13px" font-style="normal" font-weight="normal" text-decoration="none" x="955.5" y="969.5"></text></g></g><g transform="translate(-150,-814) scale(1,1)"><g><path fill="none" stroke="none"/><text fill="#000000" stroke="none" font-family="Arial" font-size="13px" font-style="normal" font-weight="normal" text-decoration="none" x="881.075927734375" y="950.5">Admin</text></g></g><g transform="translate(-150,-814) scale(1,1)"><g><path fill="none" stroke="none"/><text fill="#000000" stroke="none" font-family="Arial" font-size="13px" font-style="normal" font-weight="normal" text-decoration="none" x="119.5" y="68.5"></text></g></g><g transform="translate(-150,-814) scale(1,1)"><path fill="none" stroke="#000000" d="M 856 975 L 856 1056 M 856 1056 A 8 8 0 0 1 848 1064 L 688 1064" stroke-miterlimit="10"/></g><g transform="translate(-150,-814) scale(1,1)"><path fill="#000000" stroke="none" d="M 698.1626748576241 1059.7904822439841 L 688 1064 L 698.1626748576241 1068.2095177560159"/></g><g transform="translate(-150,-814) scale(1,1)"><path fill="none" stroke="#000000" d="M 698.1626748576241 1059.7904822439841 L 688 1064 L 698.1626748576241 1068.2095177560159 L 698.1626748576241 1059.7904822439841" stroke-miterlimit="10"/></g><g transform="translate(-150,-814) scale(1,1)"><g><path fill="none" stroke="none"/><text fill="#000000" stroke="none" font-family="Arial" font-size="13px" font-style="normal" font-weight="normal" text-decoration="none" x="751.5" y="1058.5">Sube categorias</text></g></g><g transform="translate(-150,-814) scale(1,1)"><path fill="none" stroke="#000000" d="M 840 952 L 736 952 M 736 952 A 8 8 0 0 0 728 960 L 728 1040 M 728 1040 A 8 8 0 0 1 720 1048 L 688 1048" stroke-miterlimit="10"/></g><g transform="translate(-150,-814) scale(1,1)"><path fill="#000000" stroke="none" d="M 698.1626748576241 1043.7904822439841 L 688 1048 L 698.1626748576241 1052.2095177560159"/></g><g transform="translate(-150,-814) scale(1,1)"><path fill="none" stroke="#000000" d="M 698.1626748576241 1043.7904822439841 L 688 1048 L 698.1626748576241 1052.2095177560159 L 698.1626748576241 1043.7904822439841" stroke-miterlimit="10"/></g><g transform="translate(-150,-814) scale(1,1)"><g><path fill="none" stroke="none"/><text fill="#000000" stroke="none" font-family="Arial" font-size="13px" font-style="normal" font-weight="normal" text-decoration="none" x="727.5" y="940.5">Sube Ingredientes</text></g></g><g transform="translate(-150,-814) scale(1,1)"><path fill="none" stroke="#000000" d="M 899 928 L 899 888 M 899 888 A 8 8 0 0 0 891 880 L 696 880 M 696 880 A 8 8 0 0 0 688 888 L 688 1040" stroke-miterlimit="10"/></g><g transform="translate(-150,-814) scale(1,1)"><path fill="#000000" stroke="none" d="M 683.790482243984 1029.837325142376 L 688 1040 L 692.209517756016 1029.837325142376"/></g><g transform="translate(-150,-814) scale(1,1)"><path fill="none" stroke="#000000" d="M 683.790482243984 1029.837325142376 L 688 1040 L 692.209517756016 1029.837325142376 L 683.790482243984 1029.837325142376" stroke-miterlimit="10"/></g><g transform="translate(-150,-814) scale(1,1)"><g><path fill="none" stroke="none"/><text fill="#000000" stroke="none" font-family="Arial" font-size="13px" font-style="normal" font-weight="normal" text-decoration="none" x="751.5" y="875.5">Sube Recetas</text></g></g><g transform="translate(-150,-814) scale(1,1)"><path fill="none" stroke="#000000" d="M 920 928 L 920 856 M 920 856 A 8 8 0 0 0 912 848 L 664 848 M 664 848 A 8 8 0 0 0 656 856 L 656 1040" stroke-miterlimit="10"/></g><g transform="translate(-150,-814) scale(1,1)"><path fill="#000000" stroke="none" d="M 651.790482243984 1029.837325142376 L 656 1040 L 660.209517756016 1029.837325142376"/></g><g transform="translate(-150,-814) scale(1,1)"><path fill="none" stroke="#000000" d="M 651.790482243984 1029.837325142376 L 656 1040 L 660.209517756016 1029.837325142376 L 651.790482243984 1029.837325142376" stroke-miterlimit="10"/></g><g transform="translate(-150,-814) scale(1,1)"><g><path fill="none" stroke="none"/><text fill="#000000" stroke="none" font-family="Arial" font-size="13px" font-style="normal" font-weight="normal" text-decoration="none" x="756.5" y="836.5">Borra recetas</text></g></g><g transform="translate(-150,-814) scale(1,1)"><path fill="none" stroke="#000000" d="M 904 975 L 904 1088 M 904 1088 A 8 8 0 0 1 896 1096 L 688 1096" stroke-miterlimit="10"/></g><g transform="translate(-150,-814) scale(1,1)"><path fill="#000000" stroke="none" d="M 698.1626748576241 1091.7904822439841 L 688 1096 L 698.1626748576241 1100.2095177560159"/></g><g transform="translate(-150,-814) scale(1,1)"><path fill="none" stroke="#000000" d="M 698.1626748576241 1091.7904822439841 L 688 1096 L 698.1626748576241 1100.2095177560159 L 698.1626748576241 1091.7904822439841" stroke-miterlimit="10"/></g><g transform="translate(-150,-814) scale(1,1)"><g><path fill="none" stroke="none"/><text fill="#000000" stroke="none" font-family="Arial" font-size="13px" font-style="normal" font-weight="normal" text-decoration="none" x="798.5" y="1091.5">Banea usuarios</text></g></g></g></svg>